<?xml version="1.0" encoding="UTF-8" standalone="no"?>
<svg
   xmlns:dc="http://purl.org/dc/elements/1.1/"
   xmlns:cc="http://creativecommons.org/ns#"
   xmlns:rdf="http://www.w3.org/1999/02/22-rdf-syntax-ns#"
   xmlns:svg="http://www.w3.org/2000/svg"
   xmlns="http://www.w3.org/2000/svg"
   viewBox="0 0 1280 720"
   height="720"
   width="1280"
   xml:space="preserve"
   id="svg2"
   version="1.1"><metadata
     id="metadata8"><rdf:RDF><cc:Work
         rdf:about=""><dc:format>image/svg+xml</dc:format><dc:type
           rdf:resource="http://purl.org/dc/dcmitype/StillImage" /></cc:Work></rdf:RDF></metadata><defs
     id="defs6"><clipPath
       id="clipPath18"
       clipPathUnits="userSpaceOnUse"><path
         style="clip-rule:evenodd"
         id="path16"
         d="M 0,1.2207e-4 H 960 V 540.00012 H 0 Z" /></clipPath><clipPath
       id="clipPath32"
       clipPathUnits="userSpaceOnUse"><path
         style="clip-rule:evenodd"
         id="path30"
         d="M 1.4305e-5,0 H 960.00001 V 540 H 1.4305e-5 Z" /></clipPath><clipPath
       id="clipPath44"
       clipPathUnits="userSpaceOnUse"><path
         style="clip-rule:evenodd"
         id="path42"
         d="M 1.4305e-5,0 H 960.00001 V 540 H 1.4305e-5 Z" /></clipPath><clipPath
       id="clipPath60"
       clipPathUnits="userSpaceOnUse"><path
         style="clip-rule:evenodd"
         id="path58"
         d="M 1.4305e-5,0 H 960.00001 V 540 H 1.4305e-5 Z" /></clipPath><clipPath
       id="clipPath72"
       clipPathUnits="userSpaceOnUse"><path
         style="clip-rule:evenodd"
         id="path70"
         d="M 1.4305e-5,0 H 960.00001 V 540 H 1.4305e-5 Z" /></clipPath><clipPath
       id="clipPath88"
       clipPathUnits="userSpaceOnUse"><path
         style="clip-rule:evenodd"
         id="path86"
         d="M 1.4305e-5,0 H 960.00001 V 540 H 1.4305e-5 Z" /></clipPath><clipPath
       id="clipPath100"
       clipPathUnits="userSpaceOnUse"><path
         style="clip-rule:evenodd"
         id="path98"
         d="M 1.4305e-5,0 H 960.00001 V 540 H 1.4305e-5 Z" /></clipPath><clipPath
       id="clipPath116"
       clipPathUnits="userSpaceOnUse"><path
         style="clip-rule:evenodd"
         id="path114"
         d="M 1.4305e-5,0 H 960.00001 V 540 H 1.4305e-5 Z" /></clipPath><clipPath
       id="clipPath128"
       clipPathUnits="userSpaceOnUse"><path
         style="clip-rule:evenodd"
         id="path126"
         d="M 1.4305e-5,0 H 960.00001 V 540 H 1.4305e-5 Z" /></clipPath><clipPath
       id="clipPath140"
       clipPathUnits="userSpaceOnUse"><path
         style="clip-rule:evenodd"
         id="path138"
         d="M 1.4305e-5,0 H 960.00001 V 540 H 1.4305e-5 Z" /></clipPath><clipPath
       id="clipPath162"
       clipPathUnits="userSpaceOnUse"><path
         style="clip-rule:evenodd"
         id="path160"
         d="M 1.4305e-5,0 H 960.00001 V 540 H 1.4305e-5 Z" /></clipPath><linearGradient
       id="linearGradient174"
       spreadMethod="pad"
       gradientUnits="userSpaceOnUse"
       y2="213.49001"
       x2="185.69"
       y1="238.31"
       x1="184.32001"><stop
         id="stop170"
         offset="0"
         style="stop-opacity:1;stop-color:#000000" /><stop
         id="stop172"
         offset="1"
         style="stop-opacity:1;stop-color:#000000" /></linearGradient><clipPath
       id="clipPath188"
       clipPathUnits="userSpaceOnUse"><path
         style="clip-rule:evenodd"
         id="path186"
         d="M 1.4305e-5,0 H 960.00001 V 540 H 1.4305e-5 Z" /></clipPath><clipPath
       id="clipPath204"
       clipPathUnits="userSpaceOnUse"><path
         style="clip-rule:evenodd"
         id="path202"
         d="M 1.4305e-5,0 H 960.00001 V 540 H 1.4305e-5 Z" /></clipPath><linearGradient
       id="linearGradient216"
       spreadMethod="pad"
       gradientUnits="userSpaceOnUse"
       y2="324.97"
       x2="640.96997"
       y1="349.79001"
       x1="639.59998"><stop
         id="stop212"
         offset="0"
         style="stop-opacity:1;stop-color:#000000" /><stop
         id="stop214"
         offset="1"
         style="stop-opacity:1;stop-color:#000000" /></linearGradient><linearGradient
       id="linearGradient226"
       spreadMethod="pad"
       gradientUnits="userSpaceOnUse"
       y2="220.33"
       x2="642.04999"
       y1="245.14999"
       x1="640.67999"><stop
         id="stop222"
         offset="0"
         style="stop-opacity:1;stop-color:#000000" /><stop
         id="stop224"
         offset="1"
         style="stop-opacity:1;stop-color:#000000" /></linearGradient><clipPath
       id="clipPath240"
       clipPathUnits="userSpaceOnUse"><path
         style="clip-rule:evenodd"
         id="path238"
         d="M 1.4305e-5,0 H 960.00001 V 540 H 1.4305e-5 Z" /></clipPath><clipPath
       id="clipPath256"
       clipPathUnits="userSpaceOnUse"><path
         style="clip-rule:evenodd"
         id="path254"
         d="M 1.4305e-5,0 H 960.00001 V 540 H 1.4305e-5 Z" /></clipPath><linearGradient
       id="linearGradient268"
       spreadMethod="pad"
       gradientUnits="userSpaceOnUse"
       y2="297.13"
       x2="186.64999"
       y1="321.95001"
       x1="185.28"><stop
         id="stop264"
         offset="0"
         style="stop-opacity:1;stop-color:#000000" /><stop
         id="stop266"
         offset="1"
         style="stop-opacity:1;stop-color:#000000" /></linearGradient><linearGradient
       id="linearGradient278"
       spreadMethod="pad"
       gradientUnits="userSpaceOnUse"
       y2="387.13"
       x2="186.64999"
       y1="411.95001"
       x1="185.28"><stop
         id="stop274"
         offset="0"
         style="stop-opacity:1;stop-color:#000000" /><stop
         id="stop276"
         offset="1"
         style="stop-opacity:1;stop-color:#000000" /></linearGradient></defs><g
     transform="matrix(1.3333333,0,0,-1.3333333,0,720)"
     id="g10"><g
       id="g12"><g
         clip-path="url(#clipPath18)"
         id="g14"><path
           id="path20"
           style="fill:#ffffff;fill-opacity:1;fill-rule:evenodd;stroke:none"
           d="M 0,6.1035e-5 H 960 V 540.00006 H 0 Z" /></g></g><path
       id="path22"
       style="fill:#f5b482;fill-opacity:0.70196001;fill-rule:evenodd;stroke:none"
       d="m 248.76,361.2 c 0,6.63 5.37,12 12,12 H 365.4 c 6.63,0 12,-5.37 12,-12 v -48 c 0,-6.63 -5.37,-12 -12,-12 H 260.76 c -6.63,0 -12,5.37 -12,12 z" /><path
       id="path24"
       style="fill:none;stroke:#2e54a1;stroke-width:0.95999998;stroke-linecap:butt;stroke-linejoin:miter;stroke-miterlimit:10;stroke-dasharray:none;stroke-opacity:1"
       d="m 248.76,361.2 c 0,6.63 5.37,12 12,12 H 365.4 c 6.63,0 12,-5.37 12,-12 v -48 c 0,-6.63 -5.37,-12 -12,-12 H 260.76 c -6.63,0 -12,5.37 -12,12 z" /><g
       id="g26"><g
         clip-path="url(#clipPath32)"
         id="g28"><text
           id="text36"
           style="font-variant:normal;font-weight:normal;font-size:18px;font-family:TimesNewRomanPSMT;-inkscape-font-specification:TimesNewRomanPSMT;writing-mode:lr-tb;fill:#000000;fill-opacity:1;fill-rule:nonzero;stroke:none"
           transform="matrix(1,0,0,-1,275.78,341.3)"><tspan
             id="tspan34"
             y="0"
             x="0 5.0040002 18 27 31.445999 44.442001 53.442001 61.433998 69.461998 74.466003">two wheel </tspan></text>
</g></g><g
       id="g38"><g
         clip-path="url(#clipPath44)"
         id="g40"><text
           id="text48"
           style="font-variant:normal;font-weight:normal;font-size:18px;font-family:TimesNewRomanPSMT;-inkscape-font-specification:TimesNewRomanPSMT;writing-mode:lr-tb;fill:#000000;fill-opacity:1;fill-rule:nonzero;stroke:none"
           transform="matrix(1,0,0,-1,265.22,319.7)"><tspan
             id="tspan46"
             y="0"
             x="0 13.914 22.914 31.914 39.905998 44.495998 52.487999 61.487999 70.487999 75.564003 81.557999 90.557999">mode control</tspan></text>
</g></g><path
       id="path50"
       style="fill:#f5b482;fill-opacity:0.70196001;fill-rule:evenodd;stroke:none"
       d="m 248.88,258 c 0,6.63 5.37,12 12,12 h 104.76 c 6.63,0 12,-5.37 12,-12 v -48 c 0,-6.63 -5.37,-12 -12,-12 H 260.88 c -6.63,0 -12,5.37 -12,12 z" /><path
       id="path52"
       style="fill:none;stroke:#2e54a1;stroke-width:0.95999998;stroke-linecap:butt;stroke-linejoin:miter;stroke-miterlimit:10;stroke-dasharray:none;stroke-opacity:1"
       d="m 248.88,258 c 0,6.63 5.37,12 12,12 h 104.76 c 6.63,0 12,-5.37 12,-12 v -48 c 0,-6.63 -5.37,-12 -12,-12 H 260.88 c -6.63,0 -12,5.37 -12,12 z" /><g
       id="g54"><g
         clip-path="url(#clipPath60)"
         id="g56"><text
           id="text64"
           style="font-variant:normal;font-weight:normal;font-size:18.02400017px;font-family:TimesNewRomanPSMT;-inkscape-font-specification:TimesNewRomanPSMT;writing-mode:lr-tb;fill:#000000;fill-opacity:1;fill-rule:nonzero;stroke:none"
           transform="matrix(1,0,0,-1,274.54,238.15)"><tspan
             id="tspan62"
             y="0"
             x="0 6.0019922 15.013992 24.025991 30.027985 34.443863 47.457191 56.397095 64.39975 72.456482 77.467155">four wheel </tspan></text>
</g></g><g
       id="g66"><g
         clip-path="url(#clipPath72)"
         id="g68"><text
           id="text76"
           style="font-variant:normal;font-weight:normal;font-size:18px;font-family:TimesNewRomanPSMT;-inkscape-font-specification:TimesNewRomanPSMT;writing-mode:lr-tb;fill:#000000;fill-opacity:1;fill-rule:nonzero;stroke:none"
           transform="matrix(1,0,0,-1,265.42,216.53)"><tspan
             id="tspan74"
             y="0"
             x="0 13.914 22.914 31.914 39.905998 44.495998 52.487999 61.487999 70.487999 75.564003 81.557999 90.557999">mode control</tspan></text>
</g></g><path
       id="path78"
       style="fill:#f5b482;fill-opacity:0.70196001;fill-rule:evenodd;stroke:none"
       d="m 431.04,361.2 c 0,6.63 5.37,12 12,12 H 547.8 c 6.63,0 12,-5.37 12,-12 v -48 c 0,-6.63 -5.37,-12 -12,-12 H 443.04 c -6.63,0 -12,5.37 -12,12 z" /><path
       id="path80"
       style="fill:none;stroke:#2e54a1;stroke-width:0.95999998;stroke-linecap:butt;stroke-linejoin:miter;stroke-miterlimit:10;stroke-dasharray:none;stroke-opacity:1"
       d="m 431.04,361.2 c 0,6.63 5.37,12 12,12 H 547.8 c 6.63,0 12,-5.37 12,-12 v -48 c 0,-6.63 -5.37,-12 -12,-12 H 443.04 c -6.63,0 -12,5.37 -12,12 z" /><g
       id="g82"><g
         clip-path="url(#clipPath88)"
         id="g84"><text
           id="text92"
           style="font-variant:normal;font-weight:normal;font-size:18px;font-family:TimesNewRomanPSMT;-inkscape-font-specification:TimesNewRomanPSMT;writing-mode:lr-tb;fill:#000000;fill-opacity:1;fill-rule:nonzero;stroke:none"
           transform="matrix(1,0,0,-1,454.68,341.3)"><tspan
             id="tspan90"
             y="0"
             x="0 5.0040002 14.004 28.007999 37.007999 41.507999 55.439999 64.440002 73.440002 81.431999">jump mode </tspan></text>
</g></g><g
       id="g94"><g
         clip-path="url(#clipPath100)"
         id="g96"><text
           id="text104"
           style="font-variant:normal;font-weight:normal;font-size:18px;font-family:TimesNewRomanPSMT;-inkscape-font-specification:TimesNewRomanPSMT;writing-mode:lr-tb;fill:#000000;fill-opacity:1;fill-rule:nonzero;stroke:none"
           transform="matrix(1,0,0,-1,469.92,319.7)"><tspan
             id="tspan102"
             y="0"
             x="0 7.9920001 16.992001 25.992001 31.068001 37.062 46.062">control</tspan></text>
</g></g><path
       id="path106"
       style="fill:#f5b482;fill-opacity:0.70196001;fill-rule:evenodd;stroke:none"
       d="m 431.04,258 c 0,6.63 5.37,12 12,12 H 547.8 c 6.63,0 12,-5.37 12,-12 v -48 c 0,-6.63 -5.37,-12 -12,-12 H 443.04 c -6.63,0 -12,5.37 -12,12 z" /><path
       id="path108"
       style="fill:none;stroke:#2e54a1;stroke-width:0.95999998;stroke-linecap:butt;stroke-linejoin:miter;stroke-miterlimit:10;stroke-dasharray:none;stroke-opacity:1"
       d="m 431.04,258 c 0,6.63 5.37,12 12,12 H 547.8 c 6.63,0 12,-5.37 12,-12 v -48 c 0,-6.63 -5.37,-12 -12,-12 H 443.04 c -6.63,0 -12,5.37 -12,12 z" /><g
       id="g110"><g
         clip-path="url(#clipPath116)"
         id="g112"><text
           id="text120"
           style="font-variant:normal;font-weight:normal;font-size:18.02400017px;font-family:TimesNewRomanPSMT;-inkscape-font-specification:TimesNewRomanPSMT;writing-mode:lr-tb;fill:#000000;fill-opacity:1;fill-rule:nonzero;stroke:none"
           transform="matrix(1,0,0,-1,451.92,238.15)"><tspan
             id="tspan118"
             y="0"
             x="0 13.914528 22.926529 31.938528 39.941185 44.501255 51.512592 64.417778 69.428452 74.475166 82.477821 91.489822">mode switch </tspan></text>
</g></g><g
       id="g122"><g
         clip-path="url(#clipPath128)"
         id="g124"><text
           id="text132"
           style="font-variant:normal;font-weight:normal;font-size:18px;font-family:TimesNewRomanPSMT;-inkscape-font-specification:TimesNewRomanPSMT;writing-mode:lr-tb;fill:#000000;fill-opacity:1;fill-rule:nonzero;stroke:none"
           transform="matrix(1,0,0,-1,469.92,216.53)"><tspan
             id="tspan130"
             y="0"
             x="0 7.9920001 16.992001 25.992001 31.068001 37.062 46.062">control</tspan></text>
</g></g><g
       id="g134"><g
         clip-path="url(#clipPath140)"
         id="g136"><text
           id="text144"
           style="font-variant:normal;font-weight:bold;font-size:18px;font-family:TimesNewRomanPS;-inkscape-font-specification:TimesNewRomanPS-BoldMT;writing-mode:lr-tb;fill:#000000;fill-opacity:1;fill-rule:nonzero;stroke:none"
           transform="matrix(1,0,0,-1,367.66,400.68)"><tspan
             id="tspan142"
             y="0"
             x="0 12.996 21.996 31.914 37.908001 45.594002 54.594002 59.598 64.655998 72.648003">Controller</tspan></text>
</g></g><path
       id="path146"
       style="fill:#f5b482;fill-opacity:0.30196001;fill-rule:evenodd;stroke:none"
       d="m 214.32,396.78 c 0,23.76 19.26,43.02 43.02,43.02 h 301.2 c 23.76,0 43.02,-19.26 43.02,-43.02 V 224.7 c 0,-23.76 -19.26,-43.02 -43.02,-43.02 h -301.2 c -23.76,0 -43.02,19.26 -43.02,43.02 z" /><g
       id="g148"><path
         id="path150"
         style="fill:none;stroke:#000000;stroke-width:0.95999998;stroke-linecap:butt;stroke-linejoin:miter;stroke-miterlimit:10;stroke-dasharray:7.68, 2.88;stroke-dashoffset:0;stroke-opacity:1"
         d="m 214.32,396.78 c 0,23.76 19.26,43.02 43.02,43.02 h 301.2 c 23.76,0 43.02,-19.26 43.02,-43.02 V 224.7 c 0,-23.76 -19.26,-43.02 -43.02,-43.02 h -301.2 c -23.76,0 -43.02,19.26 -43.02,43.02 z" /></g><path
       id="path152"
       style="fill:#f5b482;fill-opacity:0.70196001;fill-rule:evenodd;stroke:none"
       d="m 17.64,249.6 c 0,6.63 5.373,12 12,12 h 104.64 c 6.63,0 12,-5.37 12,-12 v -48 c 0,-6.63 -5.37,-12 -12,-12 H 29.64 c -6.627,0 -12,5.37 -12,12 z" /><path
       id="path154"
       style="fill:none;stroke:#2e54a1;stroke-width:0.95999998;stroke-linecap:butt;stroke-linejoin:miter;stroke-miterlimit:10;stroke-dasharray:none;stroke-opacity:1"
       d="m 17.64,249.6 c 0,6.63 5.373,12 12,12 h 104.64 c 6.63,0 12,-5.37 12,-12 v -48 c 0,-6.63 -5.37,-12 -12,-12 H 29.64 c -6.627,0 -12,5.37 -12,12 z" /><g
       id="g156"><g
         clip-path="url(#clipPath162)"
         id="g158"><text
           id="text166"
           style="font-variant:normal;font-weight:normal;font-size:18px;font-family:TimesNewRomanPSMT;-inkscape-font-specification:TimesNewRomanPSMT;writing-mode:lr-tb;fill:#000000;fill-opacity:1;fill-rule:nonzero;stroke:none"
           transform="matrix(1,0,0,-1,29.64,218.98)"><tspan
             id="tspan164"
             y="0"
             x="0 12.006 19.997999 34.001999 43.001999 48.006001 55.998001 61.992001 66.491997 72.486 81.486 90.486 99.486">Remoter Input</tspan></text>
</g></g><g
       id="g168"><path
         id="path176"
         style="fill:url(#linearGradient174);fill-opacity:1;fill-rule:nonzero;stroke:none"
         d="m 145.39,224.33 59.82,0.48 -0.02,2.04 -59.82,-0.48 z m 58.83,-3.61 10.16,5.18 -10.24,5.02 z" /></g><path
       id="path178"
       style="fill:#f5b482;fill-opacity:0.70196001;fill-rule:evenodd;stroke:none"
       d="m 669.6,361.2 c 0,6.63 5.37,12 12,12 h 104.76 c 6.63,0 12,-5.37 12,-12 v -48 c 0,-6.63 -5.37,-12 -12,-12 H 681.6 c -6.63,0 -12,5.37 -12,12 z" /><path
       id="path180"
       style="fill:none;stroke:#2e54a1;stroke-width:0.95999998;stroke-linecap:butt;stroke-linejoin:miter;stroke-miterlimit:10;stroke-dasharray:none;stroke-opacity:1"
       d="m 669.6,361.2 c 0,6.63 5.37,12 12,12 h 104.76 c 6.63,0 12,-5.37 12,-12 v -48 c 0,-6.63 -5.37,-12 -12,-12 H 681.6 c -6.63,0 -12,5.37 -12,12 z" /><g
       id="g182"><g
         clip-path="url(#clipPath188)"
         id="g184"><text
           id="text192"
           style="font-variant:normal;font-weight:normal;font-size:18px;font-family:TimesNewRomanPSMT;-inkscape-font-specification:TimesNewRomanPSMT;writing-mode:lr-tb;fill:#000000;fill-opacity:1;fill-rule:nonzero;stroke:none"
           transform="matrix(1,0,0,-1,689.11,330.5)"><tspan
             id="tspan190"
             y="0"
             x="0 15.48 23.472 28.548 35.549999 40.554001 44.981998 60.984001 69.984001 74.987999 83.987999">Waist Motor</tspan></text>
</g></g><path
       id="path194"
       style="fill:#f5b482;fill-opacity:0.70196001;fill-rule:evenodd;stroke:none"
       d="m 669.6,258 c 0,6.63 5.37,12 12,12 h 104.76 c 6.63,0 12,-5.37 12,-12 v -48 c 0,-6.63 -5.37,-12 -12,-12 H 681.6 c -6.63,0 -12,5.37 -12,12 z" /><path
       id="path196"
       style="fill:none;stroke:#2e54a1;stroke-width:0.95999998;stroke-linecap:butt;stroke-linejoin:miter;stroke-miterlimit:10;stroke-dasharray:none;stroke-opacity:1"
       d="m 669.6,258 c 0,6.63 5.37,12 12,12 h 104.76 c 6.63,0 12,-5.37 12,-12 v -48 c 0,-6.63 -5.37,-12 -12,-12 H 681.6 c -6.63,0 -12,5.37 -12,12 z" /><g
       id="g198"><g
         clip-path="url(#clipPath204)"
         id="g200"><text
           id="text208"
           style="font-variant:normal;font-weight:normal;font-size:18px;font-family:TimesNewRomanPSMT;-inkscape-font-specification:TimesNewRomanPSMT;writing-mode:lr-tb;fill:#000000;fill-opacity:1;fill-rule:nonzero;stroke:none"
           transform="matrix(1,0,0,-1,685.87,227.33)"><tspan
             id="tspan206"
             y="0"
             x="0 16.92 25.92 33.911999 41.976002 46.98 51.48 67.410004 76.410004 81.414001 90.414001">Wheel Motor</tspan></text>
</g></g><g
       id="g210"><path
         id="path218"
         style="fill:url(#linearGradient216);fill-opacity:1;fill-rule:nonzero;stroke:none"
         d="m 600.67,335.81 59.82,0.48 -0.02,2.04 -59.82,-0.48 z m 58.83,-3.61 10.16,5.18 -10.24,5.02 z" /></g><g
       id="g220"><path
         id="path228"
         style="fill:url(#linearGradient226);fill-opacity:1;fill-rule:nonzero;stroke:none"
         d="m 601.75,231.17 59.82,0.48 -0.02,2.04 -59.82,-0.48 z m 58.83,-3.61 10.16,5.18 -10.24,5.02 z" /></g><path
       id="path230"
       style="fill:#f5b482;fill-opacity:0.70196001;fill-rule:evenodd;stroke:none"
       d="m 17.64,423.24 c 0,6.63 5.373,12 12,12 h 104.64 c 6.63,0 12,-5.37 12,-12 v -48 c 0,-6.63 -5.37,-12 -12,-12 H 29.64 c -6.627,0 -12,5.37 -12,12 z" /><path
       id="path232"
       style="fill:none;stroke:#2e54a1;stroke-width:0.95999998;stroke-linecap:butt;stroke-linejoin:miter;stroke-miterlimit:10;stroke-dasharray:none;stroke-opacity:1"
       d="m 17.64,423.24 c 0,6.63 5.373,12 12,12 h 104.64 c 6.63,0 12,-5.37 12,-12 v -48 c 0,-6.63 -5.37,-12 -12,-12 H 29.64 c -6.627,0 -12,5.37 -12,12 z" /><g
       id="g234"><g
         clip-path="url(#clipPath240)"
         id="g236"><text
           id="text244"
           style="font-variant:normal;font-weight:normal;font-size:18px;font-family:TimesNewRomanPSMT;-inkscape-font-specification:TimesNewRomanPSMT;writing-mode:lr-tb;fill:#000000;fill-opacity:1;fill-rule:nonzero;stroke:none"
           transform="matrix(1,0,0,-1,64.464,392.66)"><tspan
             id="tspan242"
             y="0"
             x="0 5.994 21.996">IMU</tspan></text>
</g></g><path
       id="path246"
       style="fill:#f5b482;fill-opacity:0.70196001;fill-rule:evenodd;stroke:none"
       d="m 17.64,334.68 c 0,6.63 5.373,12 12,12 h 104.64 c 6.63,0 12,-5.37 12,-12 v -48 c 0,-6.63 -5.37,-12 -12,-12 H 29.64 c -6.627,0 -12,5.37 -12,12 z" /><path
       id="path248"
       style="fill:none;stroke:#2e54a1;stroke-width:0.95999998;stroke-linecap:butt;stroke-linejoin:miter;stroke-miterlimit:10;stroke-dasharray:none;stroke-opacity:1"
       d="m 17.64,334.68 c 0,6.63 5.373,12 12,12 h 104.64 c 6.63,0 12,-5.37 12,-12 v -48 c 0,-6.63 -5.37,-12 -12,-12 H 29.64 c -6.627,0 -12,5.37 -12,12 z" /><g
       id="g250"><g
         clip-path="url(#clipPath256)"
         id="g252"><text
           id="text260"
           style="font-variant:normal;font-weight:normal;font-size:18px;font-family:TimesNewRomanPSMT;-inkscape-font-specification:TimesNewRomanPSMT;writing-mode:lr-tb;fill:#000000;fill-opacity:1;fill-rule:nonzero;stroke:none"
           transform="matrix(1,0,0,-1,48.36,304.06)"><tspan
             id="tspan258"
             y="0"
             x="0 11.052 20.052 28.115999 37.116001 46.116001 54.216 60.209999">Encoders</tspan></text>
</g></g><g
       id="g262"><path
         id="path270"
         style="fill:url(#linearGradient268);fill-opacity:1;fill-rule:nonzero;stroke:none"
         d="m 146.35,307.97 59.82,0.48 -0.02,2.04 -59.82,-0.48 z m 58.83,-3.61 10.16,5.18 -10.24,5.02 z" /></g><g
       id="g272"><path
         id="path280"
         style="fill:url(#linearGradient278);fill-opacity:1;fill-rule:nonzero;stroke:none"
         d="m 146.35,397.97 59.82,0.48 -0.02,2.04 -59.82,-0.48 z m 58.83,-3.61 10.16,5.18 -10.24,5.02 z" /></g></g></svg>